<mxfile host="app.diagrams.net" agent="Mozilla/5.0 (Windows NT 10.0; Win64; x64) AppleWebKit/537.36 (KHTML, like Gecko) Chrome/133.0.0.0 Safari/537.36" version="26.2.12">
  <diagram name="Trang-1" id="hfws2sKLEFElJojgNRqS">
    <mxGraphModel dx="1826" dy="610" grid="1" gridSize="10" guides="1" tooltips="1" connect="1" arrows="1" fold="1" page="1" pageScale="1" pageWidth="827" pageHeight="1169" math="0" shadow="0">
      <root>
        <mxCell id="0" />
        <mxCell id="1" parent="0" />
        <mxCell id="CyzVIN_SlHqzadB9Sm6w-1" value="course" style="rounded=0;whiteSpace=wrap;html=1;" vertex="1" parent="1">
          <mxGeometry x="70" y="160" width="120" height="60" as="geometry" />
        </mxCell>
        <mxCell id="CyzVIN_SlHqzadB9Sm6w-4" value="" style="rounded=0;whiteSpace=wrap;html=1;" vertex="1" parent="1">
          <mxGeometry x="400" y="160" width="120" height="60" as="geometry" />
        </mxCell>
        <mxCell id="CyzVIN_SlHqzadB9Sm6w-3" value="enrollment" style="rounded=0;whiteSpace=wrap;html=1;" vertex="1" parent="1">
          <mxGeometry x="405" y="165" width="110" height="50" as="geometry" />
        </mxCell>
        <mxCell id="CyzVIN_SlHqzadB9Sm6w-5" value="student" style="rounded=0;whiteSpace=wrap;html=1;" vertex="1" parent="1">
          <mxGeometry x="720" y="160" width="120" height="60" as="geometry" />
        </mxCell>
        <mxCell id="CyzVIN_SlHqzadB9Sm6w-6" value="admin" style="rounded=0;whiteSpace=wrap;html=1;" vertex="1" parent="1">
          <mxGeometry x="402" y="465" width="120" height="60" as="geometry" />
        </mxCell>
        <mxCell id="CyzVIN_SlHqzadB9Sm6w-7" value="&lt;u&gt;id&lt;/u&gt;" style="ellipse;whiteSpace=wrap;html=1;" vertex="1" parent="1">
          <mxGeometry x="552" y="460" width="116" height="70" as="geometry" />
        </mxCell>
        <mxCell id="CyzVIN_SlHqzadB9Sm6w-8" value="" style="endArrow=none;html=1;rounded=0;exitX=1;exitY=0.5;exitDx=0;exitDy=0;entryX=0;entryY=0.5;entryDx=0;entryDy=0;" edge="1" parent="1" source="CyzVIN_SlHqzadB9Sm6w-6" target="CyzVIN_SlHqzadB9Sm6w-7">
          <mxGeometry width="50" height="50" relative="1" as="geometry">
            <mxPoint x="792" y="565" as="sourcePoint" />
            <mxPoint x="842" y="515" as="targetPoint" />
          </mxGeometry>
        </mxCell>
        <mxCell id="CyzVIN_SlHqzadB9Sm6w-9" value="username" style="ellipse;whiteSpace=wrap;html=1;" vertex="1" parent="1">
          <mxGeometry x="407" y="575" width="110" height="70" as="geometry" />
        </mxCell>
        <mxCell id="CyzVIN_SlHqzadB9Sm6w-10" value="" style="endArrow=none;html=1;rounded=0;exitX=0.5;exitY=1;exitDx=0;exitDy=0;entryX=0.5;entryY=0;entryDx=0;entryDy=0;" edge="1" parent="1" source="CyzVIN_SlHqzadB9Sm6w-6" target="CyzVIN_SlHqzadB9Sm6w-9">
          <mxGeometry width="50" height="50" relative="1" as="geometry">
            <mxPoint x="532" y="505" as="sourcePoint" />
            <mxPoint x="602" y="505" as="targetPoint" />
          </mxGeometry>
        </mxCell>
        <mxCell id="CyzVIN_SlHqzadB9Sm6w-11" value="password" style="ellipse;whiteSpace=wrap;html=1;" vertex="1" parent="1">
          <mxGeometry x="252" y="460" width="110" height="70" as="geometry" />
        </mxCell>
        <mxCell id="CyzVIN_SlHqzadB9Sm6w-12" value="" style="endArrow=none;html=1;rounded=0;exitX=1;exitY=0.5;exitDx=0;exitDy=0;entryX=0;entryY=0.5;entryDx=0;entryDy=0;" edge="1" parent="1" source="CyzVIN_SlHqzadB9Sm6w-11" target="CyzVIN_SlHqzadB9Sm6w-6">
          <mxGeometry width="50" height="50" relative="1" as="geometry">
            <mxPoint x="542" y="475" as="sourcePoint" />
            <mxPoint x="592" y="425" as="targetPoint" />
          </mxGeometry>
        </mxCell>
        <mxCell id="CyzVIN_SlHqzadB9Sm6w-17" value="N" style="edgeStyle=orthogonalEdgeStyle;rounded=0;orthogonalLoop=1;jettySize=auto;html=1;" edge="1" parent="1" source="CyzVIN_SlHqzadB9Sm6w-13" target="CyzVIN_SlHqzadB9Sm6w-3">
          <mxGeometry relative="1" as="geometry" />
        </mxCell>
        <mxCell id="CyzVIN_SlHqzadB9Sm6w-13" value="có" style="rhombus;whiteSpace=wrap;html=1;" vertex="1" parent="1">
          <mxGeometry x="252" y="150" width="80" height="80" as="geometry" />
        </mxCell>
        <mxCell id="CyzVIN_SlHqzadB9Sm6w-19" value="N" style="edgeStyle=orthogonalEdgeStyle;rounded=0;orthogonalLoop=1;jettySize=auto;html=1;" edge="1" parent="1" source="CyzVIN_SlHqzadB9Sm6w-14" target="CyzVIN_SlHqzadB9Sm6w-3">
          <mxGeometry relative="1" as="geometry" />
        </mxCell>
        <mxCell id="CyzVIN_SlHqzadB9Sm6w-14" value="có" style="rhombus;whiteSpace=wrap;html=1;" vertex="1" parent="1">
          <mxGeometry x="580" y="150" width="80" height="80" as="geometry" />
        </mxCell>
        <mxCell id="CyzVIN_SlHqzadB9Sm6w-15" value="1" style="endArrow=none;html=1;rounded=0;exitX=1;exitY=0.5;exitDx=0;exitDy=0;entryX=0;entryY=0.5;entryDx=0;entryDy=0;" edge="1" parent="1" source="CyzVIN_SlHqzadB9Sm6w-1" target="CyzVIN_SlHqzadB9Sm6w-13">
          <mxGeometry width="50" height="50" relative="1" as="geometry">
            <mxPoint x="400" y="230" as="sourcePoint" />
            <mxPoint x="250" y="190" as="targetPoint" />
          </mxGeometry>
        </mxCell>
        <mxCell id="CyzVIN_SlHqzadB9Sm6w-18" value="1" style="endArrow=none;html=1;rounded=0;exitX=1;exitY=0.5;exitDx=0;exitDy=0;entryX=0;entryY=0.5;entryDx=0;entryDy=0;" edge="1" parent="1" source="CyzVIN_SlHqzadB9Sm6w-14" target="CyzVIN_SlHqzadB9Sm6w-5">
          <mxGeometry width="50" height="50" relative="1" as="geometry">
            <mxPoint x="710" y="170" as="sourcePoint" />
            <mxPoint x="760" y="120" as="targetPoint" />
          </mxGeometry>
        </mxCell>
        <mxCell id="CyzVIN_SlHqzadB9Sm6w-20" value="&lt;u&gt;id&lt;/u&gt;" style="ellipse;whiteSpace=wrap;html=1;" vertex="1" parent="1">
          <mxGeometry x="80" y="70" width="100" height="60" as="geometry" />
        </mxCell>
        <mxCell id="CyzVIN_SlHqzadB9Sm6w-21" value="" style="endArrow=none;html=1;rounded=0;exitX=0.5;exitY=0;exitDx=0;exitDy=0;entryX=0.5;entryY=1;entryDx=0;entryDy=0;" edge="1" parent="1" source="CyzVIN_SlHqzadB9Sm6w-1" target="CyzVIN_SlHqzadB9Sm6w-20">
          <mxGeometry width="50" height="50" relative="1" as="geometry">
            <mxPoint x="190" y="130" as="sourcePoint" />
            <mxPoint x="240" y="80" as="targetPoint" />
          </mxGeometry>
        </mxCell>
        <mxCell id="CyzVIN_SlHqzadB9Sm6w-22" value="name" style="ellipse;whiteSpace=wrap;html=1;" vertex="1" parent="1">
          <mxGeometry x="-60" y="160" width="100" height="60" as="geometry" />
        </mxCell>
        <mxCell id="CyzVIN_SlHqzadB9Sm6w-23" value="duration" style="ellipse;whiteSpace=wrap;html=1;" vertex="1" parent="1">
          <mxGeometry x="-60" y="60" width="100" height="70" as="geometry" />
        </mxCell>
        <mxCell id="CyzVIN_SlHqzadB9Sm6w-24" value="instructor" style="ellipse;whiteSpace=wrap;html=1;" vertex="1" parent="1">
          <mxGeometry x="-60" y="260" width="100" height="60" as="geometry" />
        </mxCell>
        <mxCell id="CyzVIN_SlHqzadB9Sm6w-25" value="create_at" style="ellipse;whiteSpace=wrap;html=1;" vertex="1" parent="1">
          <mxGeometry x="80" y="260" width="100" height="70" as="geometry" />
        </mxCell>
        <mxCell id="CyzVIN_SlHqzadB9Sm6w-26" value="" style="endArrow=none;html=1;rounded=0;exitX=1;exitY=0;exitDx=0;exitDy=0;entryX=0;entryY=1;entryDx=0;entryDy=0;" edge="1" parent="1" source="CyzVIN_SlHqzadB9Sm6w-24" target="CyzVIN_SlHqzadB9Sm6w-1">
          <mxGeometry width="50" height="50" relative="1" as="geometry">
            <mxPoint x="20" y="280" as="sourcePoint" />
            <mxPoint x="70" y="230" as="targetPoint" />
          </mxGeometry>
        </mxCell>
        <mxCell id="CyzVIN_SlHqzadB9Sm6w-27" value="" style="endArrow=none;html=1;rounded=0;exitX=0.5;exitY=0;exitDx=0;exitDy=0;entryX=0.5;entryY=1;entryDx=0;entryDy=0;" edge="1" parent="1" source="CyzVIN_SlHqzadB9Sm6w-25" target="CyzVIN_SlHqzadB9Sm6w-1">
          <mxGeometry width="50" height="50" relative="1" as="geometry">
            <mxPoint x="100" y="270" as="sourcePoint" />
            <mxPoint x="150" y="220" as="targetPoint" />
          </mxGeometry>
        </mxCell>
        <mxCell id="CyzVIN_SlHqzadB9Sm6w-28" value="" style="endArrow=none;html=1;rounded=0;exitX=1;exitY=0.5;exitDx=0;exitDy=0;entryX=0;entryY=0.5;entryDx=0;entryDy=0;" edge="1" parent="1" source="CyzVIN_SlHqzadB9Sm6w-22" target="CyzVIN_SlHqzadB9Sm6w-1">
          <mxGeometry width="50" height="50" relative="1" as="geometry">
            <mxPoint x="50" y="150" as="sourcePoint" />
            <mxPoint x="100" y="100" as="targetPoint" />
          </mxGeometry>
        </mxCell>
        <mxCell id="CyzVIN_SlHqzadB9Sm6w-29" value="" style="endArrow=none;html=1;rounded=0;exitX=1;exitY=0.714;exitDx=0;exitDy=0;exitPerimeter=0;entryX=0;entryY=0;entryDx=0;entryDy=0;" edge="1" parent="1" source="CyzVIN_SlHqzadB9Sm6w-23" target="CyzVIN_SlHqzadB9Sm6w-1">
          <mxGeometry width="50" height="50" relative="1" as="geometry">
            <mxPoint x="50" y="160" as="sourcePoint" />
            <mxPoint x="100" y="110" as="targetPoint" />
          </mxGeometry>
        </mxCell>
        <mxCell id="CyzVIN_SlHqzadB9Sm6w-31" value="&lt;u&gt;id&lt;/u&gt;" style="ellipse;whiteSpace=wrap;html=1;" vertex="1" parent="1">
          <mxGeometry x="730" y="60" width="100" height="60" as="geometry" />
        </mxCell>
        <mxCell id="CyzVIN_SlHqzadB9Sm6w-32" value="" style="endArrow=none;html=1;rounded=0;exitX=0.5;exitY=0;exitDx=0;exitDy=0;entryX=0.5;entryY=1;entryDx=0;entryDy=0;" edge="1" parent="1" source="CyzVIN_SlHqzadB9Sm6w-5" target="CyzVIN_SlHqzadB9Sm6w-31">
          <mxGeometry width="50" height="50" relative="1" as="geometry">
            <mxPoint x="820" y="160" as="sourcePoint" />
            <mxPoint x="870" y="110" as="targetPoint" />
          </mxGeometry>
        </mxCell>
        <mxCell id="CyzVIN_SlHqzadB9Sm6w-33" value="name" style="ellipse;whiteSpace=wrap;html=1;" vertex="1" parent="1">
          <mxGeometry x="850" y="70" width="100" height="60" as="geometry" />
        </mxCell>
        <mxCell id="CyzVIN_SlHqzadB9Sm6w-34" value="dob" style="ellipse;whiteSpace=wrap;html=1;" vertex="1" parent="1">
          <mxGeometry x="880" y="140" width="100" height="60" as="geometry" />
        </mxCell>
        <mxCell id="CyzVIN_SlHqzadB9Sm6w-35" value="email" style="ellipse;whiteSpace=wrap;html=1;" vertex="1" parent="1">
          <mxGeometry x="880" y="210" width="110" height="70" as="geometry" />
        </mxCell>
        <mxCell id="CyzVIN_SlHqzadB9Sm6w-36" value="sex" style="ellipse;whiteSpace=wrap;html=1;" vertex="1" parent="1">
          <mxGeometry x="810" y="280" width="100" height="70" as="geometry" />
        </mxCell>
        <mxCell id="CyzVIN_SlHqzadB9Sm6w-37" value="phone" style="ellipse;whiteSpace=wrap;html=1;" vertex="1" parent="1">
          <mxGeometry x="590" y="60" width="100" height="70" as="geometry" />
        </mxCell>
        <mxCell id="CyzVIN_SlHqzadB9Sm6w-38" value="password" style="ellipse;whiteSpace=wrap;html=1;" vertex="1" parent="1">
          <mxGeometry x="600" y="230" width="100" height="70" as="geometry" />
        </mxCell>
        <mxCell id="CyzVIN_SlHqzadB9Sm6w-39" value="create_at" style="ellipse;whiteSpace=wrap;html=1;" vertex="1" parent="1">
          <mxGeometry x="700" y="270" width="90" height="60" as="geometry" />
        </mxCell>
        <mxCell id="CyzVIN_SlHqzadB9Sm6w-40" value="" style="endArrow=none;html=1;rounded=0;exitX=1;exitY=0.714;exitDx=0;exitDy=0;exitPerimeter=0;entryX=0;entryY=0;entryDx=0;entryDy=0;" edge="1" parent="1" source="CyzVIN_SlHqzadB9Sm6w-37" target="CyzVIN_SlHqzadB9Sm6w-5">
          <mxGeometry width="50" height="50" relative="1" as="geometry">
            <mxPoint x="690" y="170" as="sourcePoint" />
            <mxPoint x="740" y="120" as="targetPoint" />
          </mxGeometry>
        </mxCell>
        <mxCell id="CyzVIN_SlHqzadB9Sm6w-41" value="" style="endArrow=none;html=1;rounded=0;exitX=1;exitY=0;exitDx=0;exitDy=0;entryX=0;entryY=1;entryDx=0;entryDy=0;" edge="1" parent="1" source="CyzVIN_SlHqzadB9Sm6w-5" target="CyzVIN_SlHqzadB9Sm6w-33">
          <mxGeometry width="50" height="50" relative="1" as="geometry">
            <mxPoint x="820" y="160" as="sourcePoint" />
            <mxPoint x="870" y="110" as="targetPoint" />
          </mxGeometry>
        </mxCell>
        <mxCell id="CyzVIN_SlHqzadB9Sm6w-42" value="" style="endArrow=none;html=1;rounded=0;exitX=1;exitY=0.5;exitDx=0;exitDy=0;" edge="1" parent="1" source="CyzVIN_SlHqzadB9Sm6w-5" target="CyzVIN_SlHqzadB9Sm6w-34">
          <mxGeometry width="50" height="50" relative="1" as="geometry">
            <mxPoint x="590" y="160" as="sourcePoint" />
            <mxPoint x="640" y="110" as="targetPoint" />
          </mxGeometry>
        </mxCell>
        <mxCell id="CyzVIN_SlHqzadB9Sm6w-43" value="" style="endArrow=none;html=1;rounded=0;entryX=1;entryY=1;entryDx=0;entryDy=0;exitX=0;exitY=0.5;exitDx=0;exitDy=0;" edge="1" parent="1" source="CyzVIN_SlHqzadB9Sm6w-35" target="CyzVIN_SlHqzadB9Sm6w-5">
          <mxGeometry width="50" height="50" relative="1" as="geometry">
            <mxPoint x="820" y="270" as="sourcePoint" />
            <mxPoint x="870" y="220" as="targetPoint" />
          </mxGeometry>
        </mxCell>
        <mxCell id="CyzVIN_SlHqzadB9Sm6w-44" value="" style="endArrow=none;html=1;rounded=0;entryX=0.692;entryY=1.01;entryDx=0;entryDy=0;entryPerimeter=0;exitX=0.5;exitY=0;exitDx=0;exitDy=0;" edge="1" parent="1" source="CyzVIN_SlHqzadB9Sm6w-36" target="CyzVIN_SlHqzadB9Sm6w-5">
          <mxGeometry width="50" height="50" relative="1" as="geometry">
            <mxPoint x="810" y="280" as="sourcePoint" />
            <mxPoint x="860" y="230" as="targetPoint" />
          </mxGeometry>
        </mxCell>
        <mxCell id="CyzVIN_SlHqzadB9Sm6w-46" value="" style="endArrow=none;html=1;rounded=0;exitX=1;exitY=0;exitDx=0;exitDy=0;entryX=0;entryY=1;entryDx=0;entryDy=0;" edge="1" parent="1" source="CyzVIN_SlHqzadB9Sm6w-38" target="CyzVIN_SlHqzadB9Sm6w-5">
          <mxGeometry width="50" height="50" relative="1" as="geometry">
            <mxPoint x="590" y="160" as="sourcePoint" />
            <mxPoint x="640" y="110" as="targetPoint" />
          </mxGeometry>
        </mxCell>
        <mxCell id="CyzVIN_SlHqzadB9Sm6w-47" value="" style="endArrow=none;html=1;rounded=0;exitX=0.709;exitY=-0.01;exitDx=0;exitDy=0;exitPerimeter=0;entryX=0.432;entryY=1.05;entryDx=0;entryDy=0;entryPerimeter=0;" edge="1" parent="1" source="CyzVIN_SlHqzadB9Sm6w-39" target="CyzVIN_SlHqzadB9Sm6w-5">
          <mxGeometry width="50" height="50" relative="1" as="geometry">
            <mxPoint x="740" y="270" as="sourcePoint" />
            <mxPoint x="790" y="220" as="targetPoint" />
          </mxGeometry>
        </mxCell>
        <mxCell id="CyzVIN_SlHqzadB9Sm6w-49" value="&lt;u&gt;id&lt;/u&gt;" style="ellipse;whiteSpace=wrap;html=1;" vertex="1" parent="1">
          <mxGeometry x="414" y="50" width="100" height="60" as="geometry" />
        </mxCell>
        <mxCell id="CyzVIN_SlHqzadB9Sm6w-50" value="student_id" style="ellipse;whiteSpace=wrap;html=1;" vertex="1" parent="1">
          <mxGeometry x="305" y="250" width="100" height="70" as="geometry" />
        </mxCell>
        <mxCell id="CyzVIN_SlHqzadB9Sm6w-51" value="course_id" style="ellipse;whiteSpace=wrap;html=1;" vertex="1" parent="1">
          <mxGeometry x="490" y="250" width="100" height="70" as="geometry" />
        </mxCell>
        <mxCell id="CyzVIN_SlHqzadB9Sm6w-52" value="registered_at" style="ellipse;whiteSpace=wrap;html=1;" vertex="1" parent="1">
          <mxGeometry x="300" y="60" width="100" height="70" as="geometry" />
        </mxCell>
        <mxCell id="CyzVIN_SlHqzadB9Sm6w-53" value="status" style="ellipse;whiteSpace=wrap;html=1;" vertex="1" parent="1">
          <mxGeometry x="407" y="300" width="90" height="60" as="geometry" />
        </mxCell>
        <mxCell id="CyzVIN_SlHqzadB9Sm6w-54" value="" style="endArrow=none;html=1;rounded=0;exitX=0;exitY=0;exitDx=0;exitDy=0;entryX=1;entryY=1;entryDx=0;entryDy=0;" edge="1" parent="1" source="CyzVIN_SlHqzadB9Sm6w-4" target="CyzVIN_SlHqzadB9Sm6w-52">
          <mxGeometry width="50" height="50" relative="1" as="geometry">
            <mxPoint x="380" y="170" as="sourcePoint" />
            <mxPoint x="430" y="120" as="targetPoint" />
          </mxGeometry>
        </mxCell>
        <mxCell id="CyzVIN_SlHqzadB9Sm6w-55" value="" style="endArrow=none;html=1;rounded=0;exitX=0.5;exitY=0;exitDx=0;exitDy=0;entryX=0.5;entryY=1;entryDx=0;entryDy=0;" edge="1" parent="1" source="CyzVIN_SlHqzadB9Sm6w-4" target="CyzVIN_SlHqzadB9Sm6w-49">
          <mxGeometry width="50" height="50" relative="1" as="geometry">
            <mxPoint x="470" y="160" as="sourcePoint" />
            <mxPoint x="520" y="110" as="targetPoint" />
          </mxGeometry>
        </mxCell>
        <mxCell id="CyzVIN_SlHqzadB9Sm6w-56" value="" style="endArrow=none;html=1;rounded=0;exitX=0.5;exitY=0;exitDx=0;exitDy=0;entryX=0;entryY=1;entryDx=0;entryDy=0;" edge="1" parent="1" source="CyzVIN_SlHqzadB9Sm6w-50" target="CyzVIN_SlHqzadB9Sm6w-4">
          <mxGeometry width="50" height="50" relative="1" as="geometry">
            <mxPoint x="440" y="280" as="sourcePoint" />
            <mxPoint x="490" y="230" as="targetPoint" />
          </mxGeometry>
        </mxCell>
        <mxCell id="CyzVIN_SlHqzadB9Sm6w-57" value="" style="endArrow=none;html=1;rounded=0;exitX=0.5;exitY=0;exitDx=0;exitDy=0;entryX=0.5;entryY=1;entryDx=0;entryDy=0;" edge="1" parent="1" source="CyzVIN_SlHqzadB9Sm6w-53" target="CyzVIN_SlHqzadB9Sm6w-4">
          <mxGeometry width="50" height="50" relative="1" as="geometry">
            <mxPoint x="400" y="220" as="sourcePoint" />
            <mxPoint x="450" y="170" as="targetPoint" />
          </mxGeometry>
        </mxCell>
        <mxCell id="CyzVIN_SlHqzadB9Sm6w-58" value="" style="endArrow=none;html=1;rounded=0;exitX=0.5;exitY=0;exitDx=0;exitDy=0;entryX=1;entryY=1;entryDx=0;entryDy=0;" edge="1" parent="1" source="CyzVIN_SlHqzadB9Sm6w-51" target="CyzVIN_SlHqzadB9Sm6w-4">
          <mxGeometry width="50" height="50" relative="1" as="geometry">
            <mxPoint x="460" y="270" as="sourcePoint" />
            <mxPoint x="510" y="220" as="targetPoint" />
          </mxGeometry>
        </mxCell>
      </root>
    </mxGraphModel>
  </diagram>
</mxfile>
